<svg width="85" height="27" viewBox="0 0 85 27" fill="none" xmlns="http://www.w3.org/2000/svg">
<rect width="85" height="27" fill="#1E1E1E"/>
<line x1="5.03119" y1="12.501" x2="21.0312" y2="13.501" stroke="white"/>
<line x1="5.03119" y1="12.501" x2="21.0312" y2="13.501" stroke="white"/>
<line x1="5" y1="13.5" x2="21" y2="13.5" stroke="#6B4BE3"/>
<rect width="85" height="27" fill="white"/>
<path d="M36.31 13.42C36.31 13.9733 36.24 14.4767 36.1 14.93C35.9667 15.3767 35.76 15.7633 35.48 16.09C35.2067 16.4167 34.8567 16.6633 34.43 16.83L36.15 18.7H34.45L33.12 17.1C33.0933 17.1 33.0633 17.1 33.03 17.1C33.0033 17.1 32.9767 17.1 32.95 17.1C32.3767 17.1 31.8767 17.0133 31.45 16.84C31.03 16.66 30.6833 16.41 30.41 16.09C30.1367 15.7633 29.93 15.3733 29.79 14.92C29.6567 14.4667 29.59 13.9633 29.59 13.41C29.59 12.67 29.71 12.0267 29.95 11.48C30.1967 10.9333 30.5667 10.51 31.06 10.21C31.56 9.90333 32.1933 9.75 32.96 9.75C33.7133 9.75 34.3367 9.90333 34.83 10.21C35.3233 10.51 35.6933 10.9367 35.94 11.49C36.1867 12.0367 36.31 12.68 36.31 13.42ZM30.94 13.42C30.94 13.96 31.01 14.4233 31.15 14.81C31.2967 15.1967 31.5167 15.4933 31.81 15.7C32.11 15.9067 32.49 16.01 32.95 16.01C33.4233 16.01 33.8067 15.9067 34.1 15.7C34.3933 15.4933 34.61 15.1967 34.75 14.81C34.89 14.4233 34.96 13.96 34.96 13.42C34.96 12.6133 34.8033 11.98 34.49 11.52C34.1767 11.06 33.6667 10.83 32.96 10.83C32.4933 10.83 32.11 10.9333 31.81 11.14C31.5167 11.3467 31.2967 11.6433 31.15 12.03C31.01 12.4167 30.94 12.88 30.94 13.42ZM39.8904 11.48C40.3771 11.48 40.7937 11.58 41.1404 11.78C41.4937 11.9733 41.7671 12.2533 41.9604 12.62C42.1537 12.98 42.2504 13.42 42.2504 13.94V14.58H38.6704C38.6837 15.0733 38.8204 15.4567 39.0804 15.73C39.3404 15.9967 39.7004 16.13 40.1604 16.13C40.5137 16.13 40.8271 16.0967 41.1004 16.03C41.3804 15.9567 41.6671 15.8533 41.9604 15.72V16.73C41.6937 16.8567 41.4171 16.95 41.1304 17.01C40.8437 17.07 40.5004 17.1 40.1004 17.1C39.5737 17.1 39.1037 17 38.6904 16.8C38.2837 16.5933 37.9637 16.2833 37.7304 15.87C37.5037 15.4567 37.3904 14.9433 37.3904 14.33C37.3904 13.71 37.4937 13.19 37.7004 12.77C37.9137 12.3433 38.2071 12.0233 38.5804 11.81C38.9537 11.59 39.3904 11.48 39.8904 11.48ZM39.8904 12.41C39.5571 12.41 39.2837 12.52 39.0704 12.74C38.8637 12.9533 38.7404 13.2733 38.7004 13.7H41.0304C41.0304 13.4467 40.9871 13.2233 40.9004 13.03C40.8204 12.8367 40.6971 12.6867 40.5304 12.58C40.3637 12.4667 40.1504 12.41 39.8904 12.41ZM46.4209 11.48C47.0276 11.48 47.5009 11.6367 47.8409 11.95C48.1876 12.2633 48.3609 12.77 48.3609 13.47V17H47.1009V13.72C47.1009 13.3133 47.0209 13.01 46.8609 12.81C46.7009 12.6033 46.4476 12.5 46.1009 12.5C45.5943 12.5 45.2476 12.66 45.0609 12.98C44.8743 13.2933 44.7809 13.75 44.7809 14.35V17H43.5209V11.58H44.4909L44.6709 12.29H44.7409C44.8609 12.1033 45.0076 11.95 45.1809 11.83C45.3543 11.71 45.5476 11.6233 45.7609 11.57C45.9743 11.51 46.1943 11.48 46.4209 11.48ZM52.037 16.09C52.197 16.09 52.3503 16.0767 52.497 16.05C52.6436 16.0167 52.7803 15.98 52.907 15.94V16.88C52.7736 16.94 52.6003 16.99 52.387 17.03C52.1736 17.0767 51.9503 17.1 51.717 17.1C51.4103 17.1 51.1303 17.05 50.877 16.95C50.6303 16.8433 50.4303 16.6633 50.277 16.41C50.1303 16.1567 50.057 15.8033 50.057 15.35V12.53H49.327V11.98L50.127 11.54L50.527 10.39H51.317V11.58H52.857V12.53H51.317V15.34C51.317 15.5933 51.3836 15.7833 51.517 15.91C51.6503 16.03 51.8236 16.09 52.037 16.09ZM56.8095 12.53H55.4995V17H54.2395V12.53H53.3695V11.93L54.2395 11.57V11.2C54.2395 10.7333 54.3128 10.3667 54.4595 10.1C54.6061 9.83333 54.8195 9.64333 55.0995 9.53C55.3795 9.41 55.7095 9.35 56.0895 9.35C56.3561 9.35 56.5961 9.37333 56.8095 9.42C57.0228 9.46 57.1995 9.50667 57.3395 9.56L57.0195 10.5C56.9061 10.4667 56.7795 10.4367 56.6395 10.41C56.5061 10.3767 56.3595 10.36 56.1995 10.36C55.9595 10.36 55.7828 10.4367 55.6695 10.59C55.5561 10.7433 55.4995 10.9567 55.4995 11.23V11.58H56.8095V12.53ZM58.9695 17H57.7095V9.4H58.9695V17ZM65.4215 14.28C65.4215 14.7333 65.3615 15.1333 65.2415 15.48C65.1215 15.8267 64.9482 16.1233 64.7215 16.37C64.5015 16.61 64.2282 16.7933 63.9015 16.92C63.5815 17.04 63.2248 17.1 62.8315 17.1C62.4582 17.1 62.1148 17.04 61.8015 16.92C61.4882 16.7933 61.2148 16.61 60.9815 16.37C60.7548 16.1233 60.5782 15.8267 60.4515 15.48C60.3248 15.1333 60.2615 14.7333 60.2615 14.28C60.2615 13.68 60.3648 13.1733 60.5715 12.76C60.7782 12.34 61.0748 12.0233 61.4615 11.81C61.8548 11.59 62.3182 11.48 62.8515 11.48C63.3582 11.48 63.8015 11.59 64.1815 11.81C64.5682 12.0233 64.8715 12.34 65.0915 12.76C65.3115 13.1733 65.4215 13.68 65.4215 14.28ZM61.5515 14.28C61.5515 14.66 61.5948 14.9867 61.6815 15.26C61.7748 15.5267 61.9148 15.73 62.1015 15.87C62.2948 16.01 62.5415 16.08 62.8415 16.08C63.1482 16.08 63.3948 16.01 63.5815 15.87C63.7748 15.73 63.9148 15.5267 64.0015 15.26C64.0882 14.9867 64.1315 14.66 64.1315 14.28C64.1315 13.8933 64.0848 13.57 63.9915 13.31C63.9048 13.0433 63.7648 12.8433 63.5715 12.71C63.3848 12.57 63.1415 12.5 62.8415 12.5C62.3882 12.5 62.0582 12.6533 61.8515 12.96C61.6515 13.2667 61.5515 13.7067 61.5515 14.28ZM70.3688 14.67C70.3354 14.5433 70.2954 14.3867 70.2488 14.2C70.2021 14.0067 70.1521 13.8067 70.0988 13.6C70.0521 13.3933 70.0054 13.2033 69.9588 13.03C69.9188 12.8567 69.8921 12.7233 69.8788 12.63H69.8388C69.8188 12.7233 69.7888 12.8567 69.7488 13.03C69.7088 13.2033 69.6654 13.3933 69.6188 13.6C69.5721 13.8067 69.5221 14.0067 69.4688 14.2C69.4221 14.3933 69.3821 14.5533 69.3488 14.68L68.7188 17H67.3388L65.8188 11.57H67.0888L67.7588 14.16C67.8054 14.3333 67.8488 14.53 67.8888 14.75C67.9354 14.97 67.9754 15.1833 68.0088 15.39C68.0421 15.59 68.0654 15.7533 68.0788 15.88H68.1188C68.1321 15.7933 68.1488 15.68 68.1688 15.54C68.1888 15.3933 68.2121 15.2433 68.2388 15.09C68.2721 14.93 68.3021 14.7833 68.3288 14.65C68.3621 14.5167 68.3888 14.4133 68.4088 14.34L69.1888 11.57H70.5688L71.3188 14.34C71.3521 14.46 71.3888 14.6167 71.4288 14.81C71.4688 15.0033 71.5054 15.1967 71.5388 15.39C71.5721 15.5833 71.5921 15.7433 71.5987 15.87H71.6388C71.6521 15.7567 71.6754 15.6033 71.7088 15.41C71.7421 15.21 71.7821 14.9967 71.8288 14.77C71.8754 14.5433 71.9254 14.34 71.9788 14.16L72.6588 11.57H73.9088L72.3688 17H70.9688L70.3688 14.67Z" fill="black"/>
<path d="M10 10C10 7.79086 11.7909 6 14 6H21C23.2091 6 25 7.79086 25 10V17C25 19.2091 23.2091 21 21 21H14C11.7909 21 10 19.2091 10 17V10Z" fill="url(#paint0_linear_0_1)"/>
<path d="M18 14C20.6667 14 20.5238 11.75 21 14" stroke="white" stroke-width="1.2"/>
<path d="M21 13.5C21 10.7 18.6667 10 17.5 10C16.3333 10 14 10.7 14 13.5C14 16.3 16.3333 17 17.5 17C18.6667 17 21 16.3 21 13.5Z" stroke="white" stroke-width="1.2"/>
<path d="M19 12C20.5556 11.3096 21.7037 10.8841 21.4444 11.0279" stroke="#3961EC"/>
<defs>
<linearGradient id="paint0_linear_0_1" x1="17.5" y1="6" x2="17.5" y2="21" gradientUnits="userSpaceOnUse">
<stop stop-color="#3E6DF1"/>
<stop offset="1" stop-color="#2E4AE3"/>
</linearGradient>
</defs>
</svg>
